<svg width="176" height="209" viewBox="0 0 176 209" fill="none" xmlns="http://www.w3.org/2000/svg">
<path d="M1 120.071C1 133.671 11 162.737 16 175.571C26.8333 186.237 57.7 207.571 94.5 207.571C131.3 207.571 155.833 189.237 168.5 185.071C175.5 178.071 182.7 147.971 155.5 131.571C128.3 115.171 123.5 136.404 119.5 139.071C113.5 135.737 83.2 130.771 68 135.571C52.8 140.371 56.5 143.737 53 144.071C54.6667 140.071 58 129.671 58 120.071C58 108.071 42.5 95.5708 43 84.5708C43.4 75.7708 46.8333 70.5708 47.5 63.0708C50.6667 61.5708 63.4 54.9708 65 50.5708C67 45.0708 70 35.0708 70 31.0708C70 28.8081 64 26.5708 63 25.5708C62 24.5708 66.5 17.5708 63 13.5708C59.5 9.5708 47 2.0708 43 1.0708C39.7852 0.267112 36 6.5708 36 6.5708L31.5 4.5708C27.1614 5.72258 24.3421 8.47917 25 13.0708L21 11.5708C16.4367 12.2505 16.5791 12.7841 15 17.5708C15 17.5708 11 18.0708 10 20.0708C9 22.0708 10.5 26.5708 10 28.0708C9.50001 29.5708 8.40001 43.6708 10 48.0708C11.6 52.4708 13.7851 53.2375 14.6777 56.5708C9.35204 80.9267 1 108.491 1 120.071Z" fill="white" stroke="white"/>
</svg>
