<svg width="214" height="227" viewBox="0 0 214 227" fill="none" xmlns="http://www.w3.org/2000/svg">
<path fill-rule="evenodd" clip-rule="evenodd" d="M70.3114 18.4117C42.3105 10.2568 15.4076 20.8102 7.44658 40.4778C-0.514468 60.1455 -6.27936 99.0011 12.937 107.875L13.2793 108.034C32.4686 116.897 58.9085 129.108 80.1941 110.034C101.607 90.8462 103.254 85.0898 104.626 68.0605C105.999 51.0312 105.739 35.0036 88.9787 29.7423C99.0444 23.3464 114.864 15.5912 130.157 22.0094C145.449 28.4277 138.184 48.6105 128.576 65.7197C90.9666 132.69 26.6742 176.866 22.0623 183.965C16.2974 192.84 33.2513 218.206 41.4869 216.047C49.7225 213.889 69.4879 189.664 108.47 144.812C147.451 99.9604 174.08 50.3117 171.06 37.1199C168.04 23.9282 162.957 -0.181115 128.576 0.00102616C94.1946 0.183168 86.5996 16.2531 70.3114 18.4117ZM75.5273 62.0643C76.9638 77.5106 70.2452 99.9605 43.9576 99.9605C17.67 99.9605 34.5086 33.4941 54.9383 35.441C73.5205 37.2118 74.1443 45.0081 75.1861 58.0268L75.1861 58.0273C75.1991 58.1891 75.2121 58.3519 75.2252 58.5153C75.317 59.659 75.4137 60.8422 75.5273 62.0643Z" fill="white"/>
<path fill-rule="evenodd" clip-rule="evenodd" d="M166.471 120.493C156.131 119.374 138.797 122.297 129.07 132.102C114.795 146.493 107.383 164.002 116.717 190.386C126.051 216.769 142.875 228.522 164.837 226.843C186.799 225.164 219.519 202.579 213.205 168.041C206.891 133.503 200.511 120.493 166.471 120.493ZM139.227 165.202C139.778 150.301 153.237 140.678 166.471 142.656C179.705 144.634 186.214 158.466 184.971 170.37C183.728 182.274 180.567 200.863 161.463 201.659C140.765 202.521 138.514 184.491 139.227 165.202Z" fill="white"/>
</svg>
