<svg width="89" height="79" viewBox="0 0 89 79" fill="none" xmlns="http://www.w3.org/2000/svg">
<rect x="2.5" y="2.5" width="84" height="74" fill="url(#paint0_linear)" stroke="#DCE4D4" stroke-width="5"/>
<path d="M24.464 52.66H23.936V54.244H23.056V52.572C21.5893 52.4253 20.0787 52 18.524 51.296C16.9693 50.592 16.0307 50.24 15.708 50.24C14.6227 50.24 14.08 50.8267 14.08 52H13.2V41.748H14.08C14.08 44.3 14.9307 46.5147 16.632 48.392C18.3627 50.24 20.504 51.3107 23.056 51.604V43.288C19.5653 41.7627 17.3067 40.604 16.28 39.812C14.4613 38.404 13.6547 36.5413 13.86 34.224C14.0947 31.9067 14.9747 30.1173 16.5 28.856C18.0253 27.5653 19.8587 26.92 22 26.92C22.4693 26.92 22.8213 26.9347 23.056 26.964V24.148H23.936V27.052C25.0213 27.1693 26.136 27.4333 27.28 27.844C28.4533 28.2547 29.1867 28.46 29.48 28.46C30.0667 28.46 30.36 27.9467 30.36 26.92H31.24V34.972H30.36C30.36 33.1533 29.7733 31.6133 28.6 30.352C27.4267 29.0907 25.872 28.2987 23.936 27.976V35.676C24.0533 35.7347 24.2293 35.8227 24.464 35.94C24.6987 36.028 24.904 36.116 25.08 36.204C25.256 36.292 25.6667 36.4827 26.312 36.776C26.9573 37.0693 27.4267 37.2893 27.72 37.436C28.0133 37.5533 28.4387 37.7587 28.996 38.052C29.5533 38.3453 29.964 38.6093 30.228 38.844C30.5213 39.0787 30.888 39.372 31.328 39.724C31.768 40.076 32.0907 40.4427 32.296 40.824C32.5013 41.176 32.7067 41.5867 32.912 42.056C33.3227 42.9947 33.4693 44.0947 33.352 45.356C33.1173 47.732 32.2227 49.5507 30.668 50.812C29.1427 52.044 27.0747 52.66 24.464 52.66ZM22.044 27.8C20.9587 27.8 20.108 28.1227 19.492 28.768C18.876 29.384 18.568 30.1907 18.568 31.188C18.568 32.1853 18.9347 32.9773 19.668 33.564C20.4013 34.1213 21.5307 34.708 23.056 35.324V27.844C22.8507 27.8147 22.5133 27.8 22.044 27.8ZM23.936 51.692H24.288C25.4613 51.692 26.4 51.3547 27.104 50.68C27.8373 49.976 28.204 49.1253 28.204 48.128C28.204 47.1013 27.852 46.28 27.148 45.664C26.444 45.048 25.3733 44.4027 23.936 43.728V51.692ZM47.2935 51.12H50.3735V52H37.1735V51.12H40.6935V29.956L37.1295 31.32L36.8655 30.484L45.7095 26.392H47.2935V51.12ZM75.0994 39.416C75.0994 43.376 74.1167 46.5587 72.1514 48.964C70.1861 51.34 67.5314 52.528 64.1874 52.528C60.8727 52.528 58.2474 51.34 56.3114 48.964C54.4047 46.588 53.4514 43.2293 53.4514 38.888C53.4514 35.3093 54.4047 32.3027 56.3114 29.868C58.2474 27.404 60.9167 26.172 64.3194 26.172C67.7514 26.172 70.4061 27.3893 72.2834 29.824C74.1607 32.2293 75.0994 35.4267 75.0994 39.416ZM68.5434 38.888C68.5434 30.9973 67.1207 27.052 64.2754 27.052C61.4301 27.052 60.0074 30.9973 60.0074 38.888C60.0074 43.112 60.3154 46.2947 60.9314 48.436C61.5474 50.5773 62.6767 51.648 64.3194 51.648C65.9621 51.648 67.0767 50.592 67.6634 48.48C68.2501 46.368 68.5434 43.1707 68.5434 38.888Z" fill="#DCE4D4"/>
<defs>
<linearGradient id="paint0_linear" x1="28.5" y1="11.5" x2="79.5" y2="72.5" gradientUnits="userSpaceOnUse">
<stop stop-color="#5D6E5D"/>
<stop offset="0.508287" stop-color="#5D6E5D" stop-opacity="0.83"/>
<stop offset="1" stop-color="#5D6E5D"/>
</linearGradient>
</defs>
</svg>
