<svg width="108" height="79" viewBox="0 0 108 79" fill="none" xmlns="http://www.w3.org/2000/svg">
<rect x="12.5" y="2.5" width="84" height="74" fill="#5D6E5D" stroke="#DCE4D4" stroke-width="5"/>
<path d="M17.5025 26.8783C20.0937 26.7667 22.3584 27.3204 24.3315 28.5062C26.5853 29.8607 28.0995 31.862 28.8802 34.5733L29.1569 35.5342L30.1179 35.2575L31.5401 34.848L32.501 34.5712L32.2243 33.6103L28.477 20.5971L28.2002 19.6361L27.2393 19.9129L25.8171 20.3224L24.8561 20.5991L25.1329 21.5601C25.3545 22.3297 25.3604 22.7846 25.3041 23.0159C25.2801 23.1146 25.2509 23.1476 25.2425 23.1564C25.2344 23.1649 25.2047 23.194 25.1116 23.2208C25.0234 23.2462 24.7141 23.2865 24.0648 23.2913C23.4555 23.2958 22.6385 23.27 21.6065 23.2119C19.825 23.0975 18.1191 23.1472 16.4907 23.3645L15.3826 19.5164L15.1059 18.5554L14.1449 18.8321L12.7227 19.2417L11.7617 19.5184L12.0385 20.4794L13.0544 24.0072C12.823 24.0673 12.5732 24.1362 12.3061 24.2131C8.63765 25.2695 5.77164 27.2983 3.76625 30.303C1.71628 33.3056 1.10585 36.8833 1.84271 40.9452L1.84263 40.9452L1.84503 40.9575C2.65573 45.1278 5.05349 48.044 8.96887 49.6007L8.97048 49.6013C11.0567 50.4266 15.1484 51.2313 21.1269 52.0402L24.4966 63.742C20.8952 64.1238 17.5472 63.383 14.4195 61.5194C11.0129 59.4091 8.76354 56.4325 7.64477 52.5474L7.36805 51.5865L6.4071 51.8632L4.98489 52.2727L4.02394 52.5495L4.30066 53.5104L9.07186 70.0791L9.34858 71.0401L10.3095 70.7634L11.7317 70.3538L12.6927 70.0771L12.416 69.1161C12.1805 68.2983 12.2461 67.8092 12.3918 67.5195C12.5285 67.2478 12.8349 66.9558 13.5437 66.7517C13.5429 66.752 13.5435 66.7519 13.5459 66.7515C13.5621 66.7488 13.6587 66.7329 13.8837 66.731C14.1193 66.7291 14.4357 66.7423 14.8404 66.7741C15.6488 66.8376 16.7541 66.9706 18.1652 67.1764C20.7576 67.5545 23.2083 67.5885 25.5118 67.2677L26.0449 69.1188L26.3216 70.0798L27.2826 69.8031L28.7048 69.3935L29.6658 69.1168L29.389 68.1559L28.9285 66.5566C33.2408 65.2966 36.486 63.2447 38.5298 60.3266L38.5311 60.3248C40.6383 57.3022 41.2576 53.6627 40.4928 49.5052L40.4917 49.4996C40.0701 47.279 39.2632 45.4025 38.0319 43.9189C37.4672 43.2386 36.9219 42.6447 36.396 42.1414C35.7706 41.5062 34.9584 41.001 34.0013 40.6027L31.8367 39.7019C31.1946 39.3988 30.3243 39.1475 29.2728 38.9298C28.2529 38.7187 27.443 38.5777 26.8634 38.5167C26.3004 38.4134 25.4376 38.2765 24.2843 38.1067C23.0993 37.9321 22.3669 37.8179 22.0635 37.7617C21.7106 37.6963 21.3198 37.6471 20.8943 37.6123L20.5766 37.5534L17.5025 26.8783ZM13.3402 27.5367C13.5953 27.4633 13.8204 27.4015 14.0171 27.3504L16.8229 37.0941C14.8523 36.8276 13.3469 36.4809 12.279 36.0691C11.127 35.5861 10.3683 34.7287 9.98348 33.3923C9.58117 31.9952 9.70308 30.8277 10.2648 29.8117L10.2704 29.8015L10.2758 29.7912C10.8177 28.7548 11.7877 27.9838 13.3402 27.5367ZM43.6484 23.0543L52.819 54.9007L48.0911 56.2622L47.1302 56.5389L47.4069 57.4998L47.8164 58.922L48.0932 59.883L49.0541 59.6063L70.3872 53.4631L71.3482 53.1864L71.0715 52.2254L70.6619 50.8032L70.3852 49.8423L69.4242 50.119L65.4075 51.2757L54.176 12.2726L53.8992 11.3117L52.9383 11.5884L50.3783 12.3256L50.1668 12.3865L50.0004 12.5306L37.6116 23.2598L36.9464 23.8359L37.4332 24.5689L38.249 25.7972L38.8362 26.6814L39.6839 26.0425L43.6484 23.0543ZM104.811 37.8595L104.813 37.854C106.983 32.7873 107.065 26.94 105.176 20.3806C103.277 13.7865 100.171 8.83846 95.7896 5.65838C91.3416 2.3919 86.1563 1.63771 80.3523 3.30908C74.5873 4.96919 70.5889 8.39963 68.4804 13.5941L68.4798 13.5955C66.4349 18.6566 66.3045 24.1924 68.0217 30.1555C70.0789 37.2996 73.2798 42.5198 77.7178 45.6493L77.724 45.6536C82.2277 48.7793 87.3393 49.5056 92.9583 47.8875C98.6215 46.2567 102.61 42.9126 104.811 37.8595ZM27.9221 63.0616L24.9393 52.7037C26.7638 53.0671 28.1763 53.4959 29.2015 53.9766C30.3376 54.5093 31.1117 55.4262 31.5185 56.8386C31.9056 58.1829 31.7482 59.4476 31.0247 60.6959C30.4084 61.7568 29.4076 62.5588 27.9221 63.0616ZM81.2441 6.67366C82.1463 6.41387 83.0081 6.49433 83.8803 6.93273C84.7796 7.38471 85.729 8.23915 86.7077 9.59144C88.6717 12.3052 90.5854 16.7867 92.4126 23.1318C94.3997 30.0323 95.382 35.2299 95.4154 38.7761C95.4318 40.5112 95.1288 41.7901 94.5972 42.6932C94.0816 43.5691 93.309 44.1651 92.2086 44.482C91.1121 44.7977 90.1329 44.7025 89.212 44.225C88.2626 43.7327 87.3019 42.7945 86.362 41.297C84.446 38.2442 82.4977 33.3528 80.5391 26.551C78.7119 20.2058 77.9491 15.3929 78.1691 12.0503C78.2787 10.3846 78.6283 9.15605 79.1495 8.29506C79.6549 7.45993 80.342 6.93345 81.2441 6.67366Z" fill="#DCE4D4" stroke="#2E3B2E" stroke-width="2"/>
</svg>
