<svg width="260" height="260" viewBox="0 0 260 260" fill="none" xmlns="http://www.w3.org/2000/svg">
<g clip-path="url(#clip0)">
<rect width="260" height="260" rx="12" fill="#5D6E5D"/>
<path d="M116.289 247.172L111.705 248.539L115.665 262.78L108.025 265.058L103.845 250.026C90.7439 252.504 76.5644 252.591 61.3062 250.287C46.048 247.983 37.0181 247.248 34.2166 248.083C24.7934 250.893 21.5486 257.573 24.4822 268.122L16.8417 270.4L-8.79027 178.229L-1.14985 175.951C5.23066 198.894 18.1535 216.603 37.6187 229.077C57.2652 241.211 78.5338 245.293 101.424 241.323L80.6328 166.557C46.5121 161.881 24.0048 157.312 13.1108 152.849C-6.19965 144.899 -17.8604 130.241 -21.8714 108.875C-25.6278 87.4335 -22.461 69.0682 -12.3712 53.779C-2.35474 38.2262 11.9493 27.6779 30.541 22.134C34.6159 20.9189 37.7088 20.1395 39.8196 19.7957L32.779 -5.52172L40.4194 -7.8L47.68 18.3086C57.3966 16.5536 67.7345 16.0412 78.6938 16.7716C89.9078 17.426 96.7882 17.3735 99.335 16.614C104.429 15.0952 105.692 9.72061 103.125 0.490301L110.766 -1.78799L130.897 70.6039L123.257 72.8822C118.71 56.5314 109.766 44.2048 96.4249 35.9025C83.0841 27.6001 67.6059 24.5045 49.9902 26.6158L69.2417 95.8431C70.4071 96.0668 72.1552 96.4023 74.486 96.8496C76.7435 97.0332 78.7463 97.2928 80.4944 97.6283C82.2425 97.9638 86.2847 98.6148 92.6211 99.5813C98.9574 100.548 103.582 101.311 106.496 101.87C109.336 102.165 113.542 102.91 119.115 104.104C124.687 105.299 128.913 106.609 131.791 108.035C134.925 109.386 138.842 111.074 143.542 113.099C148.242 115.125 151.961 117.586 154.697 120.483C157.36 123.116 160.169 126.276 163.125 129.964C169.038 137.34 173.061 146.85 175.196 158.494C179.099 180.463 175.878 199.13 165.534 214.495C155.371 229.521 138.956 240.413 116.289 247.172ZM33.1233 29.9318C23.7001 32.7417 17.121 37.845 13.3862 45.2417C9.57803 52.3747 8.92071 60.4245 11.4142 69.391C13.9078 78.3576 19.0714 84.5288 26.9052 87.9047C34.6657 91.0169 45.9377 93.3676 60.7212 94.9567L42.0198 27.7074C40.1636 27.9752 37.1982 28.7167 33.1233 29.9318ZM109.285 239.836L112.341 238.924C122.528 235.887 129.835 230.424 134.26 222.535C138.867 214.308 139.924 205.71 137.43 196.744C134.863 187.513 129.754 181.041 122.101 177.325C114.449 173.609 103.539 170.579 89.3733 168.235L109.285 239.836Z" fill="#DCE4D4" fill-opacity="0.79"/>
<path d="M47.342 107.507L81.4793 226.103L63.4686 231.292L60.5865 232.122L61.4162 235.005L62.9203 240.23L63.7503 243.113L66.6337 242.283L144.982 219.712L147.864 218.882L147.034 215.999L145.53 210.774L144.7 207.89L141.817 208.721L126.419 213.157L84.9837 69.2076L84.1537 66.324L81.2703 67.1547L71.8685 69.8632L71.2338 70.046L70.7346 70.4786L25.2355 109.899L23.241 111.627L24.7006 113.826L27.6964 118.338L29.4584 120.992L32.002 119.074L47.342 107.507ZM270.975 162.761L270.978 162.752L270.982 162.744C278.875 144.307 279.191 122.99 272.285 98.9974C265.34 74.8685 254 56.8349 238.062 45.263C221.916 33.4004 203.093 30.6446 181.951 36.7355C160.957 42.7835 146.446 55.2549 138.788 74.1298L138.786 74.1343C131.341 92.5679 130.855 112.75 137.126 134.538C144.657 160.7 156.347 179.721 172.477 191.1L172.486 191.106L172.495 191.113C188.855 202.471 207.416 205.121 227.876 199.227C248.501 193.285 262.981 181.125 270.975 162.761ZM184.855 47.8016C188.334 46.7992 191.673 47.1139 195.024 48.7988C198.456 50.5245 202.019 53.7542 205.65 58.7741C212.933 68.8415 219.987 85.3981 226.704 108.732C234.006 134.1 237.635 153.268 237.758 166.392C237.819 172.84 236.696 177.673 234.66 181.132C232.673 184.51 229.688 186.802 225.494 188.01C221.312 189.215 217.538 188.855 213.994 187.016C210.365 185.134 206.757 181.581 203.267 176.019C196.179 164.721 189.003 146.676 181.805 121.668C175.088 98.3343 172.26 80.5601 173.076 68.1595C173.483 61.9761 174.783 57.3449 176.772 54.0572C178.715 50.847 181.375 48.804 184.855 47.8016Z" fill="#DCE4D4" stroke="#2E3B2E" stroke-width="6"/>
</g>
<defs>
<clipPath id="clip0">
<rect width="260" height="260" fill="white"/>
</clipPath>
</defs>
</svg>
